<svg xmlns="http://www.w3.org/2000/svg" fill="none" viewBox="0 0 400 530">
  <path d="M19.394 0h361.212C391.317 0 400 7.163 400 16v498c0 8.837-8.683 16-19.394 16H19.394C8.684 530 0 522.837 0 514V16C0 7.163 8.683 0 19.394 0z" fill="#fff"/>
  <path d="M19.394 1C9.251 1 1 7.729 1 16v498c0 8.271 8.251 15 18.394 15h361.212c10.143 0 18.394-6.729 18.394-15V16c0-8.271-8.251-15-18.394-15H19.394zm0-1h361.212C391.317 0 400 7.163 400 16v498c0 8.837-8.683 16-19.394 16H19.394C8.683 530 0 522.837 0 514V16C0 7.163 8.683 0 19.394 0z" fill="#D9E1E7" fill-opacity=".8"/>
</svg>
