<svg xmlns="http://www.w3.org/2000/svg" fill="none" viewBox="0 0 912 341">
  <path d="M0 338.983h912v1.033H0v-1.033z" fill="#D9E1E7" fill-opacity=".4"/>
  <path d="M894 340V1h1v339h-1zm-80 0V1h1v339h-1zm-80 0V1h1v339h-1zm-81 0V1h1v339h-1zm-80 0V1h1v339h-1zm-80 0V1h1v339h-1zm-80 0V1h1v339h-1zm-81 0V1h1v339h-1zm-80 0V1h1v339h-1zm-80 0V1h1v339h-1zm-80 0V1h1v339h-1zm-80-1V0h1v339h-1z" fill="#D9E1E7" fill-opacity=".4"/>
  <path d="M413 339.42v-6.078c0-.133.053-.26.146-.354a.504.504 0 01.708 0 .504.504 0 01.146.354v6.078c0 .133-.053.26-.146.354a.504.504 0 01-.708 0 .504.504 0 01-.146-.354zm0-12.157v-6.078c0-.133.053-.26.146-.354a.504.504 0 01.708 0 .504.504 0 01.146.354v6.078c0 .133-.053.26-.146.354a.504.504 0 01-.708 0 .504.504 0 01-.146-.354zm0-12.156v-6.079c0-.133.053-.26.146-.354a.504.504 0 01.708 0 .504.504 0 01.146.354v6.079c0 .133-.053.26-.146.354a.504.504 0 01-.708 0 .504.504 0 01-.146-.354zm0-12.158v-6.078c0-.133.053-.26.146-.354a.504.504 0 01.708 0 .504.504 0 01.146.354v6.078c0 .133-.053.26-.146.354a.504.504 0 01-.708 0 .504.504 0 01-.146-.354zm0-12.156v-6.078c0-.133.053-.26.146-.354a.504.504 0 01.708 0 .504.504 0 01.146.354v6.078c0 .133-.053.26-.146.354a.504.504 0 01-.708 0 .504.504 0 01-.146-.354zm0-12.156v-6.078c0-.133.053-.26.146-.354a.504.504 0 01.708 0 .504.504 0 01.146.354v6.078c0 .133-.053.26-.146.354a.504.504 0 01-.708 0 .504.504 0 01-.146-.354zm0-12.157v-6.08c0-.133.053-.26.146-.354a.504.504 0 01.708 0 .504.504 0 01.146.354v6.078c0 .133-.053.26-.146.354a.504.504 0 01-.708 0 .504.504 0 01-.146-.354v.002zm0-12.157v-6.078c0-.133.053-.26.146-.354a.504.504 0 01.708 0 .504.504 0 01.146.354v6.078c0 .133-.053.26-.146.354a.504.504 0 01-.708 0 .504.504 0 01-.146-.354zm0-12.156v-6.078c0-.133.053-.26.146-.354a.504.504 0 01.708 0 .504.504 0 01.146.354v6.078c0 .133-.053.26-.146.354a.504.504 0 01-.708 0 .504.504 0 01-.146-.354zm0-12.156v-6.078c0-.133.053-.26.146-.354a.504.504 0 01.708 0 .504.504 0 01.146.354v6.078c0 .133-.053.26-.146.354a.504.504 0 01-.708 0 .504.504 0 01-.146-.354zm0-12.156v-6.078c0-.133.053-.26.146-.354a.504.504 0 01.708 0 .504.504 0 01.146.354v6.078c0 .133-.053.26-.146.354a.504.504 0 01-.708 0 .504.504 0 01-.146-.354zm0-12.158v-6.078c0-.133.053-.26.146-.354a.504.504 0 01.708 0 .504.504 0 01.146.354v6.081c0 .133-.053.26-.146.354a.504.504 0 01-.708 0 .504.504 0 01-.146-.354v-.003zm0-12.156v-6.078c0-.133.053-.26.146-.354a.504.504 0 01.708 0 .504.504 0 01.146.354v6.078c0 .133-.053.26-.146.354a.504.504 0 01-.708 0 .504.504 0 01-.146-.354zm0-12.156V175.3c0-.133.053-.26.146-.354a.504.504 0 01.708 0 .504.504 0 01.146.354v6.078c0 .133-.053.26-.146.354a.504.504 0 01-.708 0 .504.504 0 01-.146-.354v.007z" fill="#0090FF"/>
</svg>
