<svg xmlns="http://www.w3.org/2000/svg" fill="none" viewBox="0 0 26 26">
  <path d="M13 0a13 13 0 110 26 13 13 0 010-26" fill="#F0F0F0"/>
  <path d="M12.435 13H26c0-1.145-.15-2.285-.448-3.391H12.435V13zm0-6.783h11.657a13.069 13.069 0 00-3-3.391h-8.657v3.391zM13 26c2.94.004 5.794-.992 8.092-2.826H4.908A12.944 12.944 0 0013 26M1.908 19.783h22.184a12.922 12.922 0 001.46-3.391H.448a12.922 12.922 0 001.46 3.391" fill="#D80027"/>
  <path d="M6.022 2.03h1.185l-1.1.8.421 1.3-1.1-.8-1.1.8.364-1.119a13.071 13.071 0 00-2.521 2.81h.38l-.7.51c-.11.182-.214.367-.315.555l.335 1.031-.625-.454a9.496 9.496 0 00-.434 1.005L1.181 9.6h1.362l-1.1.8.421 1.3-1.1-.8-.66.48A13.125 13.125 0 000 13h13V0c-2.472-.004-4.894.7-6.978 2.03zm.5 9.67l-1.1-.8-1.1.8.421-1.3-1.1-.8H5l.421-1.3.421 1.3h1.365l-1.1.8.415 1.3zM6.1 6.618l.421 1.3-1.1-.8-1.1.8.421-1.3-1.1-.8H5l.421-1.3.421 1.3h1.365l-1.107.8zm5.089 5.082l-1.1-.8-1.1.8.421-1.3-1.11-.8h1.366l.421-1.3.421 1.3h1.362l-1.1.8.419 1.3zm-.421-5.082l.421 1.3-1.1-.8-1.1.8.421-1.3-1.1-.8h1.356l.421-1.3.421 1.3h1.362l-1.102.8zm0-3.787l.421 1.3-1.1-.8-1.1.8.421-1.3-1.1-.8h1.356l.421-1.3.421 1.3h1.362l-1.102.8z" fill="#0052B4"/>
</svg>
