<svg xmlns="http://www.w3.org/2000/svg" fill="none" viewBox="0 0 28 910">
  <path d="M14.012 20a1 1 0 01-1-1v-7a1 1 0 011-1h7a1 1 0 011 1v7a1 1 0 01-1 1h-7zm1-2h5v-5h-5v5zm-12 2a1 1 0 01-1-1v-7a1 1 0 011-1h7a1 1 0 011 1v7a1 1 0 01-1 1h-7zm1-2h5v-5h-5v5zm10-9a1 1 0 01-1-1V1a1 1 0 011-1h7a1 1 0 011 1v7a1 1 0 01-1 1h-7zm1-2h5V2h-5v5zm-12 2a1 1 0 01-1-1V1a1 1 0 011-1h7a1 1 0 011 1v7a1 1 0 01-1 1h-7zm1-2h5V2h-5v5z" fill="#fff"/>
  <path d="M14.012 508h-6a34.614 34.614 0 01-3.572-.1 3.25 3.25 0 01-2.377-.946 3.234 3.234 0 01-.948-2.377A34.442 34.442 0 011.012 501v-14a34.708 34.708 0 01.1-3.572 3.234 3.234 0 013.322-3.325A34.452 34.452 0 018.012 480h5.84a.993.993 0 01.354.007 4.779 4.779 0 012.26.357 9.396 9.396 0 012.254 1.93 9.378 9.378 0 011.931 2.26c.3.711.421 1.485.356 2.254a.999.999 0 01.006.362V501a34.657 34.657 0 01-.1 3.574 3.235 3.235 0 01-3.325 3.323c-1.14.093-2.282.126-3.425.1l-.151.003zM4.66 482.087a1.345 1.345 0 00-1.559 1.561c-.083.752-.089 1.852-.089 3.352v14c0 1.5.006 2.605.09 3.352a1.341 1.341 0 001.561 1.558c.746.084 1.855.09 3.35.09h6.07c1.454 0 2.547-.008 3.279-.09a1.344 1.344 0 001.561-1.559c.085-.746.09-1.855.09-3.352V488h-5.001a.998.998 0 01-1-1v-5h-5c-1.5 0-2.606.006-3.352.089v-.002zM15.012 486h3.976a1.442 1.442 0 00-.127-.553 10.13 10.13 0 00-1.557-1.741 10.242 10.242 0 00-1.736-1.556 1.443 1.443 0 00-.556-.127V486zm1 17H5.984a1.003 1.003 0 01-.904-1.396 1.01 1.01 0 01.548-.533.99.99 0 01.384-.071h10.029a1.004 1.004 0 01.92.624.996.996 0 01-.225 1.088 1.005 1.005 0 01-.71.288h-.014zm-10.028-4a1.003 1.003 0 01-.904-1.396 1.01 1.01 0 01.548-.533.99.99 0 01.384-.071h10.029a1.002 1.002 0 01.985 1.014 1 1 0 01-1.014.986H5.984zm10.028-4H5.984a1.003 1.003 0 01-.904-1.396 1.01 1.01 0 01.548-.533.99.99 0 01.384-.071h10.029a1.004 1.004 0 01.92.624.996.996 0 01-.225 1.088 1.005 1.005 0 01-.71.288h-.014zm-4.748-391.829a11.208 11.208 0 01-8.32-16.572 11.21 11.21 0 015.292-4.809 1.02 1.02 0 01.814 1.867 9.164 9.164 0 1012.09 11.974 1.015 1.015 0 011.882.012 1.016 1.016 0 01-.01.781 11.168 11.168 0 01-11.747 6.747zm1.448-10.088a1.016 1.016 0 01-1.017-1.018V81.878a1.016 1.016 0 011.017-1.019 11.2 11.2 0 0111.185 11.206 1.017 1.017 0 01-1.017 1.018H12.712zm1.017-2.037h8.078a9.16 9.16 0 00-8.078-8.093v8.093zM17.012 661v-2a2.998 2.998 0 00-3-3h-8a2.999 2.999 0 00-3 3v2a1 1 0 11-2 0v-2a5.002 5.002 0 015-5h8a5.002 5.002 0 015 5v2a1 1 0 11-2 0zm-12-14a5 5 0 1110 0 5 5 0 01-10 0zm2 0a3.003 3.003 0 001.852 2.772 2.998 2.998 0 003.27-.651 2.997 2.997 0 00-.455-4.615A2.998 2.998 0 007.012 647zm-3 97a2.999 2.999 0 01-3-3v-5.191a.985.985 0 01.065-.2l3.47-7.809a3.002 3.002 0 012.765-1.8h9.4a3.002 3.002 0 012.745 1.785l3.457 7.782a.999.999 0 01.098.433v5a2.998 2.998 0 01-3 3h-16zm-1-3a1 1 0 001 1h16a.998.998 0 001-1v-4h-4.465l-1.7 2.555a.997.997 0 01-.835.445h-4a.998.998 0 01-.833-.445L7.477 737H3.012v4zm5-6a1.007 1.007 0 01.832.445l1.7 2.554h2.93l1.7-2.554a.992.992 0 01.838-.445h4.462l-2.845-6.4a1.005 1.005 0 00-.917-.6h-9.4a.998.998 0 00-.915.595L3.551 735h4.461zm2.08 172a.701.701 0 00-.484-.685.651.651 0 00-.709.122l-.059.06a3 3 0 11-4.244-4.244l.052-.052a.664.664 0 00-.465-1.12h-.17a2.999 2.999 0 01-2.122-5.121 2.999 2.999 0 012.121-.879.702.702 0 00.685-.483.647.647 0 00-.122-.709l-.059-.059a3.004 3.004 0 01-.65-3.27 3 3 0 014.894-.974l.052.051a.646.646 0 00.716.13.992.992 0 01.2-.064.653.653 0 00.285-.531V889a2.997 2.997 0 013-3 2.999 2.999 0 013 3v.085a.655.655 0 00.4.6.652.652 0 00.709-.122l.06-.059a2.998 2.998 0 015.123 2.122 3 3 0 01-.88 2.122l-.052.052a.652.652 0 00-.13.717c.028.064.05.131.064.2a.649.649 0 00.531.284h.174a2.999 2.999 0 012.121 5.121 2.999 2.999 0 01-2.12.879h-.087a.664.664 0 00-.477 1.113l.06.059a3.008 3.008 0 01.879 2.122 3 3 0 01-3 3.001 3 3 0 01-2.122-.879l-.053-.052a.665.665 0 00-1.004.106.663.663 0 00-.116.359v.17a2.998 2.998 0 01-3 3 2.999 2.999 0 01-3-3zm.265-2.539a2.658 2.658 0 011.735 2.449v.09a.999.999 0 102 0v-.175a2.664 2.664 0 014.527-1.883l.06.06a.995.995 0 00.708.293 1.006 1.006 0 00.708-.293.997.997 0 00.217-1.091.997.997 0 00-.217-.325l-.067-.068a2.65 2.65 0 01-.533-2.917 2.65 2.65 0 012.427-1.6h.09a.998.998 0 00.707-1.707.998.998 0 00-.707-.293h-.174a2.645 2.645 0 01-2.425-1.607 1 1 0 01-.072-.264 2.651 2.651 0 01.614-2.737l.06-.06a1.001 1.001 0 00-1.416-1.416l-.068.068a2.662 2.662 0 01-4.519-1.895V889a1 1 0 10-2 0v.174a2.65 2.65 0 01-1.607 2.426c-.084.036-.173.06-.264.072a2.657 2.657 0 01-2.737-.614l-.06-.061a1.001 1.001 0 10-1.416 1.417l.068.068a2.628 2.628 0 01.554 2.865 2.662 2.662 0 01-2.449 1.735h-.089a.998.998 0 00-1 1 1 1 0 001 1h.174a2.666 2.666 0 011.884 4.527l-.06.06a1.002 1.002 0 001.416 1.416l.068-.068a2.678 2.678 0 011.864-.762 2.47 2.47 0 011 .206zM9.012 898a4 4 0 118 0 4 4 0 01-8 0zm2 0a2 2 0 103.998 0 2 2 0 00-3.998 0zm-7-476a2.999 2.999 0 01-3-3v-15a2.998 2.998 0 013-3h19a2.999 2.999 0 013 3v15a2.998 2.998 0 01-3 3h-19zm19-2a.998.998 0 001-1v-6.2h-3.279l-2.449 7.2h4.728zm-20-16v15a1 1 0 001 1H15.74l-4.728-13.9-2.052 6.029a.998.998 0 01-.949.67H4.012a.99.99 0 01-.713-.276.972.972 0 01-.298-.703.981.981 0 011.011-.98h3.28L9.96 403H4.012a.998.998 0 00-1 1zm14 13.543l2.052-6.029a.998.998 0 01.95-.67h4V404a1 1 0 00-1-1h-10.95l4.948 14.543zM7.012 806c-1-.023-2.002.005-3 .086A2.863 2.863 0 001.098 809a28.74 28.74 0 00-.086 3v7c0 2.25-.14 1.581.635 2.727a2.771 2.771 0 001.7 1.076c.56.11 1.13.167 1.7.17.012.36.024.716.06 1.023a2.86 2.86 0 002.905 2.918c.532.06 1.173.075 1.881.08.04.004.08.006.12.006h11c1 .024 2.001-.005 3-.086a2.864 2.864 0 002.706-1.79 2.86 2.86 0 00.207-1.124c.08-.998.11-1.999.086-3v-2a.988.988 0 00-.006-.119c-.006-.707-.02-1.346-.08-1.877a2.858 2.858 0 00-2.914-2.918c-.309-.035-.667-.046-1.029-.059a.989.989 0 00.027-.254c.02-.799-.041-1.598-.18-2.385a2.8 2.8 0 00-1.053-1.73c-1.145-.8-.49-.658-2.764-.658h-2.655a7.778 7.778 0 01-2.912-.391 2.46 2.46 0 01-1-.783 4.72 4.72 0 00-1.713-1.279 9.553 9.553 0 00-3.648-.545h-.07L7.012 806zm0 2c.999-.056 2 .077 2.95.391.398.167.746.438 1.007.783.462.55 1.043.988 1.7 1.279a9.48 9.48 0 003.691.547h2.652c2.272 0 1.408.152 1.615.3.1.073.162.125.246.516.103.655.148 1.318.135 1.981 0 .07.007.139.021.207h-.672a7.778 7.778 0 01-2.912-.391 2.461 2.461 0 01-1-.783 4.72 4.72 0 00-1.713-1.279 9.563 9.563 0 00-3.65-.545h-.07c-1-.023-2.002.005-3 .086a2.845 2.845 0 00-2.075.835A2.856 2.856 0 005.098 814a28.74 28.74 0 00-.086 3v3.969a7.837 7.837 0 01-1.223-.115c-.37-.085-.413-.138-.486-.246-.146-.216-.29.641-.29-1.608v-7c0-1.247.005-2.168.073-2.773.068-.605.185-.812.264-.891.08-.079.284-.194.89-.262.604-.068 1.526-.074 2.772-.074zm4 5c.999-.056 2 .077 2.95.391.398.167.746.437 1.007.783.462.55 1.043.988 1.7 1.279a9.48 9.48 0 003.691.547h.652c1.247 0 2.168.006 2.773.074.605.068.812.185.891.264.08.079.194.283.262.889.068.606.074 1.527.074 2.773v1c0 1.246-.006 2.168-.074 2.773-.068.605-.183.81-.262.889-.079.079-.285.2-.89.264-.607.064-1.527.074-2.774.074h-10c-1.247 0-2.168-.006-2.773-.074-.605-.068-.812-.185-.89-.264-.08-.079-.195-.284-.263-.889s-.074-1.527-.074-2.773v-4c0-1.247.006-2.168.074-2.773.068-.605.185-.812.264-.891.08-.079.284-.194.89-.262.604-.068 1.526-.074 2.772-.074zm5-466h-12a2.999 2.999 0 01-3-3v-10a2.998 2.998 0 013-3h3v-1a2.998 2.998 0 013-3h4a2.999 2.999 0 013 3v1h3a2.999 2.999 0 013 3v10a2.998 2.998 0 01-3 3h-4zm4-2a.998.998 0 001-1v-10a1 1 0 00-1-1h-3v12h3zm-5 0v-12h-6v12h6zm-12-11v10a1 1 0 001 1h3v-12h-3a.998.998 0 00-1 1zm12-3v-1a1 1 0 00-1-1h-4a.998.998 0 00-1 1v1h6zm-5-89c-3.267 0-4.939 2.644-4.994 5.9a.986.986 0 00-.006.1v1h-4a.998.998 0 00-1 1v8a46.016 46.016 0 00.135 4.73 3.993 3.993 0 004.14 4.137c1.237.129 2.481.173 3.725.133h5a27.33 27.33 0 003.73-.135c1.222-.138 1.235-.432 1.971-1.168a4.75 4.75 0 001.166-2.971c.125-1.572.17-3.149.133-4.726v-8a1 1 0 00-1-1h-4v-1a.972.972 0 00-.006-.113c-.06-3.249-1.73-5.887-4.994-5.887zm0 2c2.22 0 3 1.781 3 4v1h-6v-1c0-2.219.781-4 3-4zm-8 7h3v2a1 1 0 002 .028V251h6v2a1.002 1.002 0 00.986 1.014.989.989 0 00.711-.283 1.012 1.012 0 00.303-.703V251h3v7c0 1.994-.006 3.477-.12 4.5a2.926 2.926 0 01-.593 1.781c-.267.267.246.478-.78.594a26.48 26.48 0 01-3.507.125h-5a26.389 26.389 0 01-3.5-.121 2.927 2.927 0 01-1.78-.592 2.923 2.923 0 01-.595-1.781c-.12-1.027-.125-2.506-.125-4.506v-7zm6-87a34.412 34.412 0 00-3.576.1 3.232 3.232 0 00-3.094 2.038c-.163.409-.24.846-.228 1.286A5.5 5.5 0 001.012 169v10a5.477 5.477 0 00.1 1.576 3.236 3.236 0 003.324 3.322c1.19.096 2.383.13 3.576.102h11a34.413 34.413 0 003.576-.1 3.232 3.232 0 003.094-2.038c.163-.409.24-.846.228-1.286.11-.518.144-1.049.102-1.576v-10a5.477 5.477 0 00-.1-1.576 3.237 3.237 0 00-3.324-3.322 34.414 34.414 0 00-3.576-.102h-11zm0 2h11c1.5 0 2.6.006 3.35.09a1.337 1.337 0 011.52.919c.066.207.08.427.041.64.11.441.14.899.09 1.351v1h-4a1.006 1.006 0 00-.22.021A3.986 3.986 0 0016.018 174a3.986 3.986 0 003.775 3.978c.072.015.146.023.22.022h4v1c.05.452.019.909-.09 1.35a1.342 1.342 0 01-1.56 1.56c-.746.084-1.855.09-3.352.09H8.012c-.382 0-.668-.006-1-.008v-15.984c.332 0 .618-.008 1-.008zm-3 .07v15.859c-.1-.008-.256-.009-.35-.02a1.345 1.345 0 01-1.56-1.559 3.83 3.83 0 01-.09-1.35v-10c-.05-.452-.02-.909.09-1.35a1.344 1.344 0 011.56-1.561c.093-.011.245-.011.351-.02v.001zm15 5.93h4v4h-4a2 2 0 010-4zm0 1a1 1 0 10.001 1.999 1 1 0 000-1.999z" fill="#809FB8"/>
</svg>
